<svg width="40" height="41" viewBox="0 0 40 41" fill="none" xmlns="http://www.w3.org/2000/svg">
<rect y="0.330078" width="40" height="40" rx="20" fill="white" fill-opacity="0.25"/>
<g clip-path="url(#clip0_67_987)">
<path d="M23.7302 12.4307V14.6405H22.416C21.9361 14.6405 21.6124 14.7409 21.445 14.9418C21.2776 15.1427 21.1939 15.4441 21.1939 15.8458V17.4279H23.6465L23.32 19.9056H21.1939V26.2588H18.6325V19.9056H16.498V17.4279H18.6325V15.6031C18.6325 14.5652 18.9227 13.7602 19.5031 13.1882C20.0834 12.6162 20.8563 12.3302 21.8217 12.3302C22.642 12.3302 23.2782 12.3637 23.7302 12.4307Z" fill="white"/>
</g>
<defs>
<clipPath id="clip0_67_987">
<rect width="8.58" height="15" fill="white" transform="matrix(1 0 0 -1 15.6992 27.3301)"/>
</clipPath>
</defs>
</svg>
