<svg width="197" height="45" viewBox="0 0 197 45" fill="none" xmlns="http://www.w3.org/2000/svg">
<path d="M32.2209 30.9628C29.7029 34.5926 26.1002 37.3313 21.9297 38.7861C27.5648 38.5867 33.0712 37.0474 37.9929 34.2957L32.2209 30.9628Z" fill="#225986"/>
<path d="M25.2705 0.431274C24.7384 0.270222 24.2012 0.126514 23.6602 -3.8147e-05C23.7607 0.0453453 23.8609 0.091465 23.9607 0.138691C34.4035 5.06394 38.8764 17.5223 33.9514 27.965L42.733 33.0352C46.9142 19.2095 39.0958 4.61233 25.2705 0.431274Z" fill="#609740"/>
<path d="M40.7328 36.2239C31.2459 42.8052 18.2202 40.45 11.639 30.9627L2.85742 36.0331C12.7402 46.5668 29.2904 47.0945 39.8246 37.212C40.2299 36.8315 40.6226 36.4386 41.003 36.0331C40.9136 36.0975 40.8233 36.161 40.7328 36.2239Z" fill="#225986"/>
<path d="M8.27756 15.1407C5.63236 20.1206 4.21238 25.6588 4.13477 31.2969L9.90689 27.9647C8.02232 23.9697 7.45194 19.4802 8.27756 15.1407Z" fill="#D02643"/>
<path d="M0.694053 31.4247C0.820883 31.9659 0.964649 32.503 1.12556 33.0352C1.11468 32.925 1.10467 32.8154 1.09537 32.7055C0.139676 21.1988 8.6922 11.0961 20.1983 10.1399V-3.8147e-05C6.13499 3.29164 -2.59762 17.361 0.694053 31.4247Z" fill="#D02643"/>
<path d="M23.6602 3.47465V10.1396C28.0622 10.5056 32.2352 12.2563 35.5805 15.1406C32.5905 10.36 28.5042 6.36084 23.6602 3.47465Z" fill="#609740"/>
<path d="M66.9968 17.742C64.9375 18.6338 62.7506 19.1855 60.5214 19.1855C55.1923 19.1855 51.8379 16.0435 51.8379 11.3938C51.8379 7.23234 54.98 3.43205 61.0733 3.43205C62.8145 3.43205 64.3217 3.68663 65.9988 4.21756V7.57215C65.3407 7.16869 63.7909 6.23449 61.5404 6.23449C58.1432 6.23449 55.8715 8.37907 55.8715 11.3512C55.8715 14.0476 57.6761 16.5104 61.0733 16.5104C62.156 16.5104 62.8357 16.2556 63.345 16.0645L63.3873 13.2196H59.8417L61.3705 10.5233H67.0392L66.9968 17.742Z" fill="#231F20"/>
<path d="M72.3457 18.8037H68.418V3.81433H72.3457V18.8037Z" fill="#231F20"/>
<path d="M83.4287 18.8037H74.3418V3.81433H78.2696V15.81H85.1699L83.4287 18.8037Z" fill="#231F20"/>
<path d="M85.6367 3.81433H92.0061C94.1294 3.81433 96.6985 4.81218 96.6985 7.7421C96.6985 9.27051 95.8702 10.3112 94.4266 10.9478C94.7875 11.0965 95.276 11.2662 95.7217 11.5848C96.6345 12.2006 97.2289 13.2833 97.2289 14.5147C97.2289 15.7461 96.6561 16.9563 95.5734 17.7845C94.3206 18.7607 92.9193 18.8037 91.8362 18.8037H85.6367V3.81433ZM89.3949 11.8398L90.7535 9.84388C91.051 9.84388 91.3908 9.84388 91.7307 9.75902C92.6645 9.52547 93.089 8.86724 93.089 8.16659C93.089 6.78667 91.8576 6.59555 90.8385 6.59555H89.3949V11.8398ZM89.3949 16.0645H90.9448C92.3885 16.0645 93.3439 15.4702 93.3439 14.1115C93.3439 12.4342 91.8576 12.158 90.3716 12.158H89.3949V16.0645Z" fill="#231F20"/>
<path d="M112.622 18.8037H108.482L107.463 15.81H102.113L101.03 18.8037H97.1445L103.047 3.81433H106.848L112.622 18.8037ZM106.678 13.4957L105.085 8.76116C104.979 8.42135 104.936 8.31528 104.873 7.93303C104.724 8.40032 104.724 8.44275 104.639 8.6763L102.919 13.4957H106.678Z" fill="#231F20"/>
<path d="M126.72 18.8037H122.452L118.631 12.4554C117.888 12.4978 117.782 12.4978 116.932 12.4978V18.8037H113.111V3.81433H119.905C122.241 3.81433 124.704 5.04592 124.704 7.99686C124.704 8.61266 124.576 9.20687 124.321 9.7378C123.79 10.9266 122.898 11.4573 122.41 11.7549L126.72 18.8037ZM116.932 12.1794L118.418 10.0776C118.886 10.0564 119.183 10.0564 119.523 9.97136C120.308 9.78024 120.86 9.14341 120.86 8.27285C120.86 7.59322 120.52 7.14752 120.202 6.93536C119.714 6.57434 118.992 6.57434 118.164 6.57434H116.932V12.1794Z" fill="#231F20"/>
<path d="M136.826 18.7821C136.274 18.9308 135.34 19.1855 133.684 19.1855C128.312 19.1855 125.148 15.8099 125.148 11.4787C125.148 7.25355 128.143 3.43205 133.959 3.43205C135.658 3.43205 136.954 3.75046 137.973 4.04766V7.38103C137.442 7.04122 136.21 6.2557 134.427 6.2557C131.115 6.2557 129.225 8.57001 129.225 11.3088C129.225 14.1963 131.264 16.4468 134.745 16.4468C136.083 16.4468 137.42 16.1496 138.652 15.64L136.826 18.7821Z" fill="#231F20"/>
<path d="M146.678 19.1855C141.455 19.1855 138.377 15.8099 138.377 11.3088C138.377 6.91411 141.476 3.43205 146.593 3.43205C151.774 3.43205 154.767 7.02037 154.767 11.2239C154.767 15.364 151.901 19.1855 146.678 19.1855ZM150.627 11.3512C150.627 8.46393 149.098 6.31953 146.593 6.31953C144.13 6.31953 142.517 8.44271 142.517 11.2876C142.517 14.0476 144.045 16.2132 146.593 16.2132C149.375 16.2132 150.627 13.6231 150.627 11.3512Z" fill="#231F20"/>
<path d="M60.6338 40.4639H57.1731L51.207 25.4748H55.4746L59.0628 35.7931L62.757 25.4748H66.6845L60.6338 40.4639Z" fill="#231F20"/>
<path d="M76.4301 40.4639H67.2793V25.4748H77.0034V28.4261H71.1858V31.2921H76.1753V34.2218H71.1858V37.4916H78.1286L76.4301 40.4639Z" fill="#231F20"/>
<path d="M87.8519 40.4639H78.7012V25.4748H88.4249V28.4261H82.6074V31.2921H87.5972V34.2218H82.6074V37.4916H89.5501L87.8519 40.4639Z" fill="#231F20"/>
<path d="M90.125 25.4748H96.8344C100.995 25.4748 104.265 28.1497 104.265 32.8418C104.265 34.9864 103.5 36.9609 102.163 38.3196C100.125 40.3788 97.7044 40.4639 96.0271 40.4639H90.125V25.4748ZM94.0101 37.5767H95.1143C95.9422 37.5767 96.8128 37.5554 97.7044 37.1519C99.6156 36.2814 100.125 34.4128 100.125 32.9481C100.125 30.1243 98.3203 28.4261 95.6024 28.3832H94.0101V37.5767Z" fill="#231F20"/>
<path d="M114.264 40.4639H105.113V25.4748H114.837V28.4261H109.019V31.2921H114.009V34.2218H109.019V37.4916H115.963L114.264 40.4639Z" fill="#231F20"/>
<path d="M130.144 40.4639H125.876L122.055 34.1159C121.312 34.158 121.206 34.158 120.356 34.158V40.4639H116.535V25.4748H123.329C125.665 25.4748 128.128 26.706 128.128 29.6574C128.128 30.2731 128 30.8673 127.745 31.398C127.214 32.5871 126.323 33.1182 125.834 33.4151L130.144 40.4639ZM120.356 33.8395L121.842 31.7378C122.31 31.7165 122.607 31.7165 122.947 31.6319C123.732 31.4409 124.284 30.8035 124.284 29.9334C124.284 29.2542 123.944 28.8081 123.626 28.5959C123.138 28.2348 122.416 28.2348 121.588 28.2348H120.356V33.8395Z" fill="#231F20"/>
<path d="M136.237 34.3936H129.953L131.545 32.0584H137.83L136.237 34.3936Z" fill="#231F20"/>
<path d="M152.924 40.4639H148.656L144.834 34.1159C144.091 34.158 143.985 34.158 143.136 34.158V40.4639H139.314V25.4748H146.108C148.444 25.4748 150.907 26.706 150.907 29.6574C150.907 30.2731 150.779 30.8673 150.524 31.398C149.994 32.5871 149.102 33.1182 148.614 33.4151L152.924 40.4639ZM143.136 33.8395L144.622 31.7378C145.089 31.7165 145.387 31.7165 145.726 31.6319C146.512 31.4409 147.064 30.8035 147.064 29.9334C147.064 29.2542 146.724 28.8081 146.405 28.5959C145.917 28.2348 145.195 28.2348 144.368 28.2348H143.136V33.8395Z" fill="#231F20"/>
<path d="M160.077 40.8467C154.854 40.8467 151.775 37.4709 151.775 32.9699C151.775 28.5752 154.875 25.0927 159.992 25.0927C165.172 25.0927 168.166 28.6814 168.166 32.8848C168.166 37.0248 165.3 40.8467 160.077 40.8467ZM164.026 33.0124C164.026 30.1249 162.497 27.9806 159.992 27.9806C157.53 27.9806 155.916 30.104 155.916 32.9486C155.916 35.7086 157.445 37.8741 159.992 37.8741C162.773 37.8741 164.026 35.2842 164.026 33.0124Z" fill="#231F20"/>
<path d="M177.255 40.8467C172.032 40.8467 168.953 37.4709 168.953 32.9699C168.953 28.5752 172.053 25.0927 177.17 25.0927C182.351 25.0927 185.344 28.6814 185.344 32.8848C185.344 37.0248 182.478 40.8467 177.255 40.8467ZM181.204 33.0124C181.204 30.1249 179.676 27.9806 177.17 27.9806C174.707 27.9806 173.094 30.104 173.094 32.9486C173.094 35.7086 174.622 37.8741 177.17 37.8741C179.951 37.8741 181.204 35.2842 181.204 33.0124Z" fill="#231F20"/>
<path d="M192.755 40.4639H188.848V28.4471H184.559V25.4748H197V28.4471H192.755V40.4639Z" fill="#231F20"/>
<path d="M197 22.1025H51.3066V21.5168H197V22.1025Z" fill="#231F20"/>
<path d="M39.7816 42.3301H39.0882V44.2393H38.6482V42.3301H37.9551V41.9727H39.7816V42.3301ZM41.5034 43.5791L42.1195 41.9727H42.7523V44.2393H42.3396V42.4677H42.3287L41.6521 44.2393H41.344L40.6671 42.4677H40.6562V44.2393H40.2436V41.9727H40.8817L41.5034 43.5791Z" fill="#231F20"/>
</svg>
