<svg width="40" height="41" viewBox="0 0 40 41" fill="none" xmlns="http://www.w3.org/2000/svg">
<rect y="0.330078" width="40" height="40" rx="20" fill="white" fill-opacity="0.25"/>
<g clip-path="url(#clip0_67_991)">
<path d="M20.0211 16.376C21.9898 16.376 23.6148 18.001 23.6148 19.9697C23.6148 21.9697 21.9898 23.5635 20.0211 23.5635C18.0211 23.5635 16.4273 21.9697 16.4273 19.9697C16.4273 18.001 18.0211 16.376 20.0211 16.376ZM20.0211 22.3135C21.3023 22.3135 22.3336 21.2822 22.3336 19.9697C22.3336 18.6885 21.3023 17.6572 20.0211 17.6572C18.7086 17.6572 17.6773 18.6885 17.6773 19.9697C17.6773 21.2822 18.7398 22.3135 20.0211 22.3135ZM24.5836 16.251C24.5836 16.7197 24.2086 17.0947 23.7398 17.0947C23.2711 17.0947 22.8961 16.7197 22.8961 16.251C22.8961 15.7822 23.2711 15.4072 23.7398 15.4072C24.2086 15.4072 24.5836 15.7822 24.5836 16.251ZM26.9586 17.0947C27.0211 18.251 27.0211 21.7197 26.9586 22.876C26.8961 24.001 26.6461 24.9697 25.8336 25.8135C25.0211 26.626 24.0211 26.876 22.8961 26.9385C21.7398 27.001 18.2711 27.001 17.1148 26.9385C15.9898 26.876 15.0211 26.626 14.1773 25.8135C13.3648 24.9697 13.1148 24.001 13.0523 22.876C12.9898 21.7197 12.9898 18.251 13.0523 17.0947C13.1148 15.9697 13.3648 14.9697 14.1773 14.1572C15.0211 13.3447 15.9898 13.0947 17.1148 13.0322C18.2711 12.9697 21.7398 12.9697 22.8961 13.0322C24.0211 13.0947 25.0211 13.3447 25.8336 14.1572C26.6461 14.9697 26.8961 15.9697 26.9586 17.0947ZM25.4586 24.0947C25.8336 23.1885 25.7398 21.001 25.7398 19.9697C25.7398 18.9697 25.8336 16.7822 25.4586 15.8447C25.2086 15.251 24.7398 14.751 24.1461 14.5322C23.2086 14.1572 21.0211 14.251 20.0211 14.251C18.9898 14.251 16.8023 14.1572 15.8961 14.5322C15.2711 14.7822 14.8023 15.251 14.5523 15.8447C14.1773 16.7822 14.2711 18.9697 14.2711 19.9697C14.2711 21.001 14.1773 23.1885 14.5523 24.0947C14.8023 24.7197 15.2711 25.1885 15.8961 25.4385C16.8023 25.8135 18.9898 25.7197 20.0211 25.7197C21.0211 25.7197 23.2086 25.8135 24.1461 25.4385C24.7398 25.1885 25.2398 24.7197 25.4586 24.0947Z" fill="white"/>
</g>
<defs>
<clipPath id="clip0_67_991">
<rect width="13.94" height="15" fill="white" transform="matrix(1 0 0 -1 13.0293 27.3301)"/>
</clipPath>
</defs>
</svg>
