<svg width="27" height="18" viewBox="0 0 27 18" fill="none" xmlns="http://www.w3.org/2000/svg">
<path d="M1.98075 10.5001C1.98075 10.5001 2.01051 10.5596 2.07003 10.6787C2.12956 10.7977 2.30813 10.8572 2.60575 10.8572C2.90337 10.8572 3.1117 10.7382 3.23075 10.5001C3.3498 10.262 3.3498 10.0239 3.23075 9.78581C3.1117 9.54772 2.90337 9.42867 2.60575 9.42867C2.30813 9.42867 2.0998 9.54772 1.98075 9.78581C1.8617 10.0239 1.8617 10.262 1.98075 10.5001ZM19.0455 10.2099C18.9711 10.1132 18.8278 9.92718 18.6158 9.65188C18.4037 9.37659 18.2493 9.17569 18.1526 9.0492C18.0559 8.92272 17.9145 8.74042 17.7285 8.50233C17.5425 8.26423 17.3844 8.06706 17.2542 7.91081C17.124 7.75456 16.9733 7.57971 16.8022 7.38626C16.631 7.19281 16.4636 7.01051 16.2999 6.83938L14.9049 8.40188C14.2873 9.10129 13.5116 9.44355 12.5778 9.42867C11.6441 9.41379 10.8796 9.0492 10.2843 8.33492C9.86021 7.82153 9.65002 7.23373 9.65374 6.57153C9.65746 5.90932 9.87509 5.32525 10.3066 4.81929L12.2821 2.52019C12.1184 2.43834 11.9287 2.37696 11.7129 2.33603C11.4971 2.29511 11.3204 2.27279 11.1828 2.26907C11.0451 2.26535 10.8349 2.26721 10.5522 2.27465C10.2694 2.28209 10.0871 2.28581 10.0053 2.28581C9.32078 2.28581 8.73298 2.53135 8.24191 3.02242L6.47852 4.78581H4.7486V10.8572C4.78581 10.8572 4.86393 10.8554 4.98298 10.8517C5.10203 10.8479 5.18387 10.8479 5.22852 10.8517C5.27316 10.8554 5.3457 10.8628 5.44615 10.874C5.5466 10.8851 5.62286 10.9019 5.67494 10.9242C5.72703 10.9465 5.79213 10.9781 5.87026 11.0191C5.94838 11.06 6.01721 11.1102 6.07673 11.1697L9.39146 14.4287C10.2471 15.2546 11.0916 15.6675 11.9249 15.6675C12.5053 15.6675 12.9703 15.4927 13.32 15.143C13.7441 15.2918 14.1627 15.262 14.5756 15.0537C14.9886 14.8453 15.2583 14.5291 15.3848 14.105C15.9354 14.1497 16.4078 13.986 16.8022 13.6139C16.951 13.48 17.0849 13.3107 17.204 13.1061C17.323 12.9015 17.3751 12.7136 17.3602 12.5425C17.4346 12.6169 17.5946 12.6541 17.8401 12.6541C18.1601 12.6541 18.4465 12.576 18.6995 12.4197C18.9525 12.2635 19.1366 12.0663 19.252 11.8282C19.3673 11.5901 19.4119 11.3241 19.3859 11.0302C19.3598 10.7363 19.2464 10.4629 19.0455 10.2099ZM20.82 10.8572H21.8915V5.14295H20.8535L19.1013 3.13403C18.6102 2.56855 17.9815 2.28581 17.2151 2.28581H15.3513C14.6891 2.28581 14.1459 2.53507 13.7218 3.03358L11.3892 5.74563C11.1809 5.99117 11.0767 6.27019 11.0767 6.58269C11.0767 6.89519 11.1772 7.1742 11.3781 7.41974C11.698 7.7992 12.1072 7.99266 12.6057 8.0001C13.1043 8.00754 13.5172 7.82525 13.8446 7.45322L15.9986 5.02019C16.1846 4.84906 16.3836 4.76907 16.5957 4.78023C16.8078 4.79139 16.9826 4.89184 17.1203 5.08157C17.2579 5.2713 17.2895 5.4815 17.2151 5.71215C17.3342 5.85352 17.5425 6.08789 17.8401 6.41528C18.1377 6.74266 18.361 6.99563 18.5098 7.1742C18.7255 7.44206 19.0325 7.83455 19.4305 8.35166C19.8286 8.86877 20.0685 9.18313 20.1504 9.29474C20.5373 9.78581 20.7605 10.3066 20.82 10.8572ZM23.4093 10.5001C23.4093 10.5001 23.4391 10.5596 23.4986 10.6787C23.5581 10.7977 23.7367 10.8572 24.0343 10.8572C24.3319 10.8572 24.5403 10.7382 24.6593 10.5001C24.7784 10.262 24.7784 10.0239 24.6593 9.78581C24.5403 9.54772 24.3319 9.42867 24.0343 9.42867C23.7367 9.42867 23.5284 9.54772 23.4093 9.78581C23.2903 10.0239 23.2903 10.262 23.4093 10.5001ZM26.1772 4.42867V11.5715C26.1772 11.765 26.1065 11.9324 25.9651 12.0738C25.8238 12.2151 25.6563 12.2858 25.4629 12.2858H20.6191C20.4182 12.7694 20.1132 13.1656 19.704 13.4744C19.2947 13.7832 18.8297 13.9748 18.3089 14.0492C18.0633 14.4063 17.7639 14.7095 17.4104 14.9588C17.057 15.2081 16.6757 15.3773 16.2665 15.4666C15.954 15.861 15.5652 16.1642 15.1002 16.3762C14.6351 16.5883 14.1571 16.6794 13.666 16.6497C13.2196 16.9026 12.7508 17.0496 12.2598 17.0905C11.7687 17.1314 11.2944 17.0793 10.8368 16.9342C10.3792 16.7892 9.94392 16.5901 9.53097 16.3372C9.11802 16.0842 8.73298 15.7828 8.37584 15.4331L5.17271 12.2858H1.17718C0.983724 12.2858 0.816313 12.2151 0.674944 12.0738C0.533575 11.9324 0.462891 11.765 0.462891 11.5715V4.07153C0.462891 3.87807 0.533575 3.71066 0.674944 3.56929C0.816313 3.42793 0.983724 3.35724 1.17718 3.35724H5.87584C5.98 3.25307 6.15486 3.0745 6.40039 2.82153C6.64593 2.56855 6.82264 2.38998 6.93052 2.28581C7.03841 2.18165 7.2021 2.03284 7.4216 1.83938C7.64109 1.64593 7.82896 1.50642 7.98521 1.42086C8.14146 1.33529 8.33119 1.24043 8.55441 1.13626C8.77762 1.03209 9.00828 0.959547 9.24637 0.918625C9.48447 0.877703 9.73744 0.857241 10.0053 0.857241H11.3111C12.0477 0.857241 12.7211 1.06557 13.3312 1.48224C13.9413 1.06557 14.6147 0.857241 15.3513 0.857241H17.2151C17.4755 0.857241 17.7248 0.879562 17.9629 0.924206C18.201 0.968847 18.4112 1.02279 18.5935 1.08603C18.7758 1.14928 18.9674 1.24787 19.1682 1.38179C19.3691 1.51572 19.5347 1.63105 19.6649 1.72778C19.7951 1.8245 19.9551 1.97145 20.1448 2.16862C20.3345 2.3658 20.4796 2.52205 20.5801 2.63737C20.6805 2.7527 20.8331 2.93127 21.0377 3.17309C21.2423 3.4149 21.3967 3.59534 21.5008 3.71438H25.4629C25.6563 3.71438 25.8238 3.78507 25.9651 3.92644C26.1065 4.06781 26.1772 4.23522 26.1772 4.42867Z" fill="#294145"/>
</svg>
