<svg width="40" height="41" viewBox="0 0 40 41" fill="none" xmlns="http://www.w3.org/2000/svg">
<rect y="0.330078" width="40" height="40" rx="20" fill="white" fill-opacity="0.25"/>
<g clip-path="url(#clip0_67_995)">
<path d="M16.4838 17.5612V25.8564H13.7215V17.5612H16.4838ZM16.6596 14.9999C16.6652 15.4072 16.5243 15.7476 16.2369 16.0211C15.9495 16.2945 15.5714 16.4312 15.1027 16.4312H15.0859C14.6283 16.4312 14.26 16.2945 13.981 16.0211C13.702 15.7476 13.5625 15.4072 13.5625 14.9999C13.5625 14.5869 13.7062 14.2451 13.9936 13.9745C14.281 13.7038 14.6562 13.5685 15.1194 13.5685C15.5826 13.5685 15.9537 13.7038 16.2327 13.9745C16.5117 14.2451 16.654 14.5869 16.6596 14.9999ZM26.4196 21.102V25.8564H23.6657V21.4201C23.6657 20.8341 23.5527 20.3751 23.3267 20.0431C23.1007 19.7111 22.7478 19.5451 22.2679 19.5451C21.9163 19.5451 21.6219 19.6413 21.3848 19.8338C21.1476 20.0264 20.9704 20.2649 20.8532 20.5495C20.7919 20.7169 20.7612 20.9429 20.7612 21.2275V25.8564H18.0073C18.0184 23.6299 18.024 21.8246 18.024 20.4407C18.024 19.0568 18.0212 18.2309 18.0156 17.963L18.0073 17.5612H20.7612V18.7666H20.7444C20.856 18.588 20.9704 18.4318 21.0876 18.2979C21.2048 18.1639 21.3624 18.0188 21.5605 17.8626C21.7586 17.7063 22.0014 17.585 22.2888 17.4985C22.5762 17.412 22.8956 17.3687 23.2472 17.3687C24.2015 17.3687 24.9688 17.6854 25.5491 18.3188C26.1295 18.9521 26.4196 19.8799 26.4196 21.102Z" fill="white"/>
</g>
<defs>
<clipPath id="clip0_67_995">
<rect width="12.86" height="15" fill="white" transform="matrix(1 0 0 -1 13.5605 27.3301)"/>
</clipPath>
</defs>
</svg>
