<svg width="26" height="25" viewBox="0 0 26 25" fill="none" xmlns="http://www.w3.org/2000/svg">
<path d="M1.51786 14.4429C1.51786 14.4429 1.54762 14.532 1.60714 14.7103C1.66667 14.8886 1.84524 14.9778 2.14286 14.9778C2.44048 14.9778 2.64881 14.7995 2.76786 14.4429C2.8869 14.0863 2.8869 13.7297 2.76786 13.373C2.64881 13.0164 2.44048 12.8381 2.14286 12.8381C1.84524 12.8381 1.6369 13.0164 1.51786 13.373C1.39881 13.7297 1.39881 14.0863 1.51786 14.4429ZM18.5826 14.0083C18.5082 13.8634 18.365 13.5848 18.1529 13.1725C17.9408 12.7601 17.7865 12.4592 17.6897 12.2698C17.593 12.0803 17.4516 11.8073 17.2656 11.4507C17.0796 11.0941 16.9215 10.7988 16.7913 10.5647C16.6611 10.3307 16.5104 10.0688 16.3393 9.77908C16.1682 9.48933 16.0007 9.2163 15.8371 8.95998L14.442 11.3002C13.8244 12.3478 13.0487 12.8604 12.115 12.8381C11.1812 12.8158 10.4167 12.2698 9.82143 11.1999C9.39732 10.431 9.18713 9.55062 9.19085 8.5588C9.19457 7.56697 9.4122 6.69216 9.84375 5.93437L11.8192 2.49084C11.6555 2.36826 11.4658 2.27632 11.25 2.21502C11.0342 2.15373 10.8575 2.1203 10.7199 2.11473C10.5822 2.10916 10.372 2.11194 10.0893 2.12309C9.80655 2.13423 9.62426 2.1398 9.54241 2.1398C8.85789 2.1398 8.27009 2.50756 7.77902 3.24307L6.01562 5.88422H4.28571V14.9778C4.32292 14.9778 4.40104 14.975 4.52009 14.9694C4.63914 14.9639 4.72098 14.9639 4.76562 14.9694C4.81027 14.975 4.88281 14.9862 4.98326 15.0029C5.08371 15.0196 5.15997 15.0447 5.21205 15.0781C5.26414 15.1115 5.32924 15.1589 5.40737 15.2202C5.48549 15.2815 5.55432 15.3567 5.61384 15.4458L8.92857 20.327C9.78423 21.564 10.6287 22.1825 11.4621 22.1825C12.0424 22.1825 12.5074 21.9206 12.8571 21.3968C13.2812 21.6197 13.6998 21.5751 14.1127 21.2631C14.5257 20.951 14.7954 20.4774 14.9219 19.8422C15.4725 19.9091 15.9449 19.6639 16.3393 19.1067C16.4881 18.9061 16.622 18.6526 16.7411 18.3461C16.8601 18.0396 16.9122 17.7582 16.8973 17.5019C16.9717 17.6134 17.1317 17.6691 17.3772 17.6691C17.6972 17.6691 17.9836 17.5521 18.2366 17.3181C18.4896 17.084 18.6737 16.7887 18.7891 16.4321C18.9044 16.0755 18.949 15.6771 18.923 15.2369C18.8969 14.7967 18.7835 14.3872 18.5826 14.0083ZM20.3571 14.9778H21.4286V6.41913H20.3906L18.6384 3.41023C18.1473 2.56328 17.5186 2.1398 16.7522 2.1398H14.8884C14.2262 2.1398 13.683 2.51313 13.2589 3.25978L10.9263 7.3218C10.718 7.68956 10.6138 8.10746 10.6138 8.57551C10.6138 9.04357 10.7143 9.46147 10.9152 9.82922C11.2351 10.3976 11.6443 10.6873 12.1429 10.6985C12.6414 10.7096 13.0543 10.4366 13.3817 9.87937L15.5357 6.23526C15.7217 5.97894 15.9208 5.85914 16.1328 5.87586C16.3449 5.89257 16.5197 6.04302 16.6574 6.32719C16.795 6.61137 16.8266 6.92619 16.7522 7.27166C16.8713 7.48339 17.0796 7.83443 17.3772 8.32477C17.6749 8.81511 17.8981 9.19401 18.0469 9.46147C18.2626 9.86266 18.5696 10.4505 18.9676 11.225C19.3657 11.9995 19.6057 12.4704 19.6875 12.6375C20.0744 13.373 20.2976 14.1531 20.3571 14.9778ZM22.9464 14.4429C22.9464 14.4429 22.9762 14.532 23.0357 14.7103C23.0952 14.8886 23.2738 14.9778 23.5714 14.9778C23.869 14.9778 24.0774 14.7995 24.1964 14.4429C24.3155 14.0863 24.3155 13.7297 24.1964 13.373C24.0774 13.0164 23.869 12.8381 23.5714 12.8381C23.2738 12.8381 23.0655 13.0164 22.9464 13.373C22.8274 13.7297 22.8274 14.0863 22.9464 14.4429ZM25.7143 5.3493V16.0476C25.7143 16.3374 25.6436 16.5881 25.5022 16.7999C25.3609 17.0116 25.1935 17.1175 25 17.1175H20.1562C19.9554 17.8418 19.6503 18.4352 19.2411 18.8977C18.8318 19.3602 18.3668 19.6472 17.846 19.7586C17.6004 20.2935 17.301 20.7476 16.9475 21.121C16.5941 21.4943 16.2128 21.7478 15.8036 21.8816C15.4911 22.4722 15.1023 22.9263 14.6373 23.2439C14.1722 23.5615 13.6942 23.698 13.2031 23.6535C12.7567 24.0324 12.2879 24.2525 11.7969 24.3138C11.3058 24.3751 10.8315 24.297 10.3739 24.0797C9.9163 23.8624 9.48103 23.5643 9.06808 23.1854C8.65513 22.8065 8.27009 22.3552 7.91295 21.8314L4.70982 17.1175H0.714286C0.520833 17.1175 0.353423 17.0116 0.212054 16.7999C0.0706845 16.5881 0 16.3374 0 16.0476V4.81438C0 4.52464 0.0706845 4.2739 0.212054 4.06216C0.353423 3.85042 0.520833 3.74455 0.714286 3.74455H5.41295C5.51711 3.58853 5.69196 3.32108 5.9375 2.94218C6.18304 2.56328 6.35975 2.29582 6.46763 2.1398C6.57552 1.98379 6.73921 1.7609 6.95871 1.47116C7.1782 1.18141 7.36607 0.972458 7.52232 0.844301C7.67857 0.716145 7.8683 0.574057 8.09152 0.418039C8.31473 0.262022 8.54539 0.153368 8.78348 0.0920753C9.02158 0.0307827 9.27455 0.000137329 9.54241 0.000137329H10.8482C11.5848 0.000137329 12.2582 0.312172 12.8683 0.936239C13.4784 0.312172 14.1518 0.000137329 14.8884 0.000137329H16.7522C17.0126 0.000137329 17.2619 0.0335693 17.5 0.100433C17.7381 0.167297 17.9483 0.248093 18.1306 0.342817C18.3129 0.437542 18.5045 0.585201 18.7054 0.785795C18.9062 0.986389 19.0718 1.15912 19.202 1.304C19.3322 1.44887 19.4922 1.66896 19.6819 1.96428C19.8717 2.2596 20.0167 2.49363 20.1172 2.66636C20.2176 2.83909 20.3702 3.10655 20.5748 3.46873C20.7794 3.83092 20.9338 4.10116 21.0379 4.27947H25C25.1935 4.27947 25.3609 4.38534 25.5022 4.59707C25.6436 4.80881 25.7143 5.05955 25.7143 5.3493Z" fill="#294145"/>
</svg>
