<svg width="12" height="21" viewBox="0 0 12 21" fill="none" xmlns="http://www.w3.org/2000/svg">
<g clip-path="url(#clip0_67_1004)">
<path d="M7.74023 9.49289C7.74023 9.49289 7.87974 9.35338 8.15876 9.07436C8.43778 8.79534 8.57729 8.26149 8.57729 7.4728C8.57729 6.68411 8.29827 6.01074 7.74023 5.45271C7.1822 4.89467 6.50884 4.61565 5.72015 4.61565C4.93145 4.61565 4.25809 4.89467 3.70006 5.45271C3.14202 6.01074 2.863 6.68411 2.863 7.4728C2.863 8.26149 3.14202 8.93485 3.70006 9.49289C4.25809 10.0509 4.93145 10.3299 5.72015 10.3299C6.50884 10.3299 7.1822 10.0509 7.74023 9.49289ZM11.4344 7.4728C11.4344 8.28381 11.3117 8.94973 11.0661 9.47056L7.00363 18.109C6.88458 18.3545 6.70787 18.5479 6.47349 18.6893C6.23912 18.8307 5.988 18.9014 5.72015 18.9014C5.45229 18.9014 5.20117 18.8307 4.9668 18.6893C4.73242 18.5479 4.55943 18.3545 4.44782 18.109L0.374163 9.47056C0.128627 8.94973 0.00585938 8.28381 0.00585938 7.4728C0.00585938 5.89542 0.563895 4.54869 1.67997 3.43262C2.79604 2.31655 4.14276 1.75851 5.72015 1.75851C7.29753 1.75851 8.64425 2.31655 9.76032 3.43262C10.8764 4.54869 11.4344 5.89542 11.4344 7.4728Z" fill="white"/>
</g>
<defs>
<clipPath id="clip0_67_1004">
<rect width="11.44" height="20" fill="white" transform="matrix(1 0 0 -1 0 20.3301)"/>
</clipPath>
</defs>
</svg>
