<svg width="20" height="16" viewBox="0 0 20 16" fill="none" xmlns="http://www.w3.org/2000/svg">
<path d="M18.5714 14.1157V5.54422C18.3333 5.81208 18.0766 6.05762 17.8013 6.28083C15.8073 7.81357 14.2225 9.07101 13.0469 10.0532C12.6674 10.3731 12.3586 10.6223 12.1205 10.8009C11.8824 10.9795 11.5606 11.1599 11.1551 11.3422C10.7496 11.5245 10.3683 11.6157 10.0112 11.6157H10H9.98884C9.6317 11.6157 9.25037 11.5245 8.84487 11.3422C8.43936 11.1599 8.11756 10.9795 7.87946 10.8009C7.64137 10.6223 7.33259 10.3731 6.95312 10.0532C5.77753 9.07101 4.19271 7.81357 2.19866 6.28083C1.92336 6.05762 1.66667 5.81208 1.42857 5.54422V14.1157C1.42857 14.2124 1.46391 14.2961 1.5346 14.3668C1.60528 14.4375 1.68899 14.4728 1.78571 14.4728H18.2143C18.311 14.4728 18.3947 14.4375 18.4654 14.3668C18.5361 14.2961 18.5714 14.2124 18.5714 14.1157ZM18.5714 2.38574C18.5714 2.37086 18.5714 2.32994 18.5714 2.26297C18.5714 2.19601 18.5714 2.14579 18.5714 2.1123C18.5714 2.07882 18.5696 2.03046 18.5658 1.96722C18.5621 1.90397 18.551 1.85747 18.5324 1.82771C18.5138 1.79794 18.4933 1.76446 18.471 1.72726C18.4487 1.69006 18.4152 1.66216 18.3705 1.64355C18.3259 1.62495 18.2738 1.61565 18.2143 1.61565H1.78571C1.68899 1.61565 1.60528 1.651 1.5346 1.72168C1.46391 1.79236 1.42857 1.87607 1.42857 1.9728C1.42857 3.2228 1.97545 4.27934 3.0692 5.14244C4.50521 6.27339 5.99702 7.45271 7.54464 8.68038C7.58929 8.71759 7.71949 8.82733 7.93527 9.00963C8.15104 9.19192 8.32217 9.33143 8.44866 9.42815C8.57515 9.52488 8.7407 9.64207 8.94531 9.77972C9.14993 9.91736 9.3378 10.0197 9.50893 10.0866C9.68006 10.1536 9.84003 10.1871 9.98884 10.1871H10H10.0112C10.16 10.1871 10.3199 10.1536 10.4911 10.0866C10.6622 10.0197 10.8501 9.91736 11.0547 9.77972C11.2593 9.64207 11.4249 9.52488 11.5513 9.42815C11.6778 9.33143 11.849 9.19192 12.0647 9.00963C12.2805 8.82733 12.4107 8.71759 12.4554 8.68038C14.003 7.45271 15.4948 6.27339 16.9308 5.14244C17.3326 4.8225 17.7065 4.39281 18.0525 3.85338C18.3984 3.31394 18.5714 2.82473 18.5714 2.38574ZM20 1.9728V14.1157C20 14.6067 19.8251 15.0271 19.4754 15.3768C19.1257 15.7265 18.7054 15.9014 18.2143 15.9014H1.78571C1.29464 15.9014 0.874256 15.7265 0.524554 15.3768C0.174851 15.0271 0 14.6067 0 14.1157V1.9728C0 1.48172 0.174851 1.06134 0.524554 0.711635C0.874256 0.361933 1.29464 0.187081 1.78571 0.187081H18.2143C18.7054 0.187081 19.1257 0.361933 19.4754 0.711635C19.8251 1.06134 20 1.48172 20 1.9728Z" fill="white"/>
</svg>
