<svg width="16" height="16" viewBox="0 0 16 16" fill="none" xmlns="http://www.w3.org/2000/svg">
<path d="M15.7162 12.6691C15.7162 12.87 15.679 13.1323 15.6046 13.4559C15.5302 13.7796 15.4521 14.0344 15.3703 14.2204C15.214 14.5924 14.7601 14.9868 14.0086 15.4035C13.3092 15.7829 12.6173 15.9727 11.9328 15.9727C11.7319 15.9727 11.5347 15.9596 11.3412 15.9336C11.1478 15.9076 10.9339 15.861 10.6995 15.7941C10.4651 15.7271 10.2903 15.6732 10.1749 15.6323C10.0596 15.5913 9.85314 15.5151 9.55552 15.4035C9.25791 15.2919 9.07561 15.2249 9.00865 15.2026C8.27948 14.9422 7.62844 14.6334 7.05552 14.2762C6.11058 13.6884 5.12844 12.8849 4.1091 11.8655C3.08975 10.8462 2.28618 9.86403 1.69838 8.91908C1.34124 8.34617 1.03246 7.69513 0.772042 6.96596C0.749721 6.899 0.682757 6.7167 0.57115 6.41908C0.459542 6.12147 0.383278 5.91499 0.342355 5.79966C0.301432 5.68434 0.247489 5.50949 0.180525 5.27511C0.11356 5.04074 0.0670573 4.82682 0.0410156 4.63337C0.014974 4.43992 0.00195312 4.24275 0.00195312 4.04185C0.00195312 3.35733 0.191685 2.66536 0.57115 1.96596C0.987816 1.21447 1.38216 0.760602 1.75419 0.604352C1.9402 0.522507 2.19503 0.444382 2.51869 0.369977C2.84236 0.295572 3.10463 0.25837 3.30552 0.25837C3.40969 0.25837 3.48782 0.269531 3.5399 0.291852C3.67383 0.336495 3.871 0.619233 4.13142 1.14007C4.21326 1.28144 4.32487 1.48233 4.46624 1.74275C4.60761 2.00316 4.73782 2.2394 4.85686 2.45145C4.97591 2.6635 5.09124 2.86254 5.20285 3.04855C5.22517 3.07831 5.29027 3.17132 5.39816 3.32757C5.50605 3.48382 5.58603 3.61588 5.63811 3.72377C5.6902 3.83166 5.71624 3.93769 5.71624 4.04185C5.71624 4.19066 5.61021 4.37667 5.39816 4.59989C5.18611 4.8231 4.95545 5.02772 4.70619 5.21373C4.45694 5.39974 4.22628 5.59691 4.01423 5.80525C3.80218 6.01358 3.69615 6.18471 3.69615 6.31864C3.69615 6.3856 3.71475 6.46931 3.75195 6.56975C3.78916 6.6702 3.82078 6.74647 3.84682 6.79855C3.87286 6.85063 3.92494 6.93992 4.00307 7.06641C4.08119 7.19289 4.12398 7.26358 4.13142 7.27846C4.69689 8.2978 5.34421 9.17206 6.07338 9.90123C6.80255 10.6304 7.6768 11.2777 8.69615 11.8432C8.71103 11.8506 8.78172 11.8934 8.9082 11.9715C9.03469 12.0497 9.12398 12.1017 9.17606 12.1278C9.22814 12.1538 9.30441 12.1855 9.40485 12.2227C9.5053 12.2599 9.58901 12.2785 9.65597 12.2785C9.7899 12.2785 9.96103 12.1724 10.1694 11.9604C10.3777 11.7483 10.5749 11.5177 10.7609 11.2684C10.9469 11.0192 11.1515 10.7885 11.3747 10.5765C11.5979 10.3644 11.7839 10.2584 11.9328 10.2584C12.0369 10.2584 12.143 10.2844 12.2508 10.3365C12.3587 10.3886 12.4908 10.4686 12.647 10.5765C12.8033 10.6843 12.8963 10.7494 12.9261 10.7718C13.1121 10.8834 13.3111 10.9987 13.5232 11.1177C13.7352 11.2368 13.9714 11.367 14.2319 11.5084C14.4923 11.6497 14.6932 11.7613 14.8345 11.8432C15.3554 12.1036 15.6381 12.3008 15.6828 12.4347C15.7051 12.4868 15.7162 12.5649 15.7162 12.6691Z" fill="white"/>
</svg>
