<svg width="71" height="71" viewBox="0 0 71 71" fill="none" xmlns="http://www.w3.org/2000/svg">
<path fill-rule="evenodd" clip-rule="evenodd" d="M42.9244 3.99682C41.6583 4.44153 41.0377 4.9204 39.6521 6.52158C39.1666 7.08248 38.6541 7.52745 38.2769 7.71552C37.7136 7.99629 37.5329 8.01559 35.4252 8.01889L33.175 8.02245L32.3624 8.41433C30.8224 9.15708 29.5879 10.6277 29.1734 12.213C29.0147 12.8201 28.9911 13.3141 29.0575 14.6443C29.1854 17.2092 29.1381 17.3069 26.6011 19.7252C25.4861 20.7881 24.8615 22.2672 24.8615 23.8449V24.5662L23.8302 24.5045C22.4713 24.4234 21.2173 24.6974 19.861 25.3719C17.8843 26.3551 16.2342 28.4221 15.6664 30.6262C15.4034 31.6478 15.4047 33.584 15.6694 34.6161C16.255 36.9002 17.8315 38.8607 19.9547 39.9453C21.1591 40.5604 22.1816 40.7557 23.8614 40.6913C25.0814 40.6445 25.4412 40.5792 26.2379 40.2598C27.4557 39.7718 28.5486 39.0101 29.3789 38.0709L30.0442 37.3182L30.8179 38.0533C32.2044 39.3708 33.7019 39.8384 35.679 39.571C37.6108 39.31 38.6122 39.7346 39.9561 41.3847C41.354 43.1009 42.6875 43.7894 44.6137 43.7894C46.5399 43.7894 47.8735 43.1009 49.2714 41.3847C50.6153 39.7346 51.6166 39.31 53.5485 39.571C55.5276 39.8386 57.023 39.3709 58.4135 38.0495C59.8937 36.6431 60.2948 35.4487 60.1682 32.825L60.0842 31.0873L60.4614 30.2685C60.7725 29.5933 61.0133 29.303 61.8351 28.6123C62.9379 27.6857 63.3031 27.2507 63.7701 26.3086C64.866 24.0978 64.4 21.4159 62.6264 19.7252C60.0893 17.3069 60.0421 17.2092 60.17 14.6443C60.2363 13.3141 60.2127 12.8201 60.0541 12.213C59.6395 10.6277 58.405 9.15708 56.8651 8.41433L56.0525 8.02245L53.8022 8.02016C51.6013 8.018 51.5379 8.01051 50.9069 7.67463C50.5115 7.46421 49.9792 7.00083 49.5318 6.47752C48.1612 4.87494 47.6149 4.45042 46.3777 4.02704C45.4123 3.69675 43.8185 3.68278 42.9244 3.99682ZM43.7054 5.67699C42.6626 5.9429 41.9568 6.5019 40.9331 7.87209C40.4169 8.56303 39.3494 9.29753 38.3903 9.62173C37.6405 9.87519 37.4104 9.8931 35.8636 9.81805C33.9135 9.72344 33.2678 9.8517 32.3897 10.5076C31.2897 11.3294 30.7993 12.4326 30.8717 13.9226C30.8973 14.449 30.912 15.3369 30.9041 15.8956C30.8791 17.691 30.2071 18.9643 28.5228 20.4079C27.218 21.5261 26.8414 22.1627 26.7646 23.3791C26.6676 24.9137 26.7459 25.1205 27.6345 25.6776C29.2545 26.6933 30.5578 28.4179 31.1342 30.3087C31.3695 31.0803 31.4219 31.5263 31.4105 32.658C31.4024 33.4713 31.3184 34.3346 31.2094 34.7247C31.0248 35.385 31.027 35.4022 31.3588 35.9336C31.7464 36.5546 32.3011 37.0589 33.0354 37.4579C33.5111 37.7163 33.6965 37.7351 35.4871 37.7057C38.2769 37.6601 39.347 38.0295 40.6955 39.5036C41.0847 39.9292 41.6234 40.5171 41.8927 40.8102C42.6599 41.6456 43.3473 41.9281 44.6137 41.9281C45.8801 41.9281 46.5676 41.6456 47.3348 40.8102C47.6041 40.5171 48.1427 39.9292 48.5319 39.5036C49.8817 38.028 50.9639 37.6546 53.7479 37.7036C55.4187 37.7329 55.74 37.706 56.1431 37.5023C57.3308 36.9025 58.3079 35.5651 58.3835 34.4358C58.4023 34.1564 58.3749 33.385 58.3229 32.7215C58.1322 30.2939 58.6083 29.1559 60.6016 27.2741C62.3177 25.6541 62.544 25.2039 62.4668 23.564C62.4009 22.1639 62.0774 21.5846 60.7046 20.4079C59.0168 18.9614 58.3454 17.6869 58.3273 15.8956C58.3215 15.3369 58.3349 14.394 58.3569 13.8004C58.391 12.8788 58.3538 12.6281 58.1027 12.086C57.7316 11.2846 56.8993 10.4324 56.1395 10.0758C55.6016 9.82338 55.3851 9.80332 53.5522 9.83722C51.7977 9.86973 51.4599 9.84205 50.8019 9.61233C49.7727 9.25308 48.8481 8.57776 48.1226 7.65571C47.2805 6.5852 46.896 6.23713 46.2193 5.93325C45.5352 5.62594 44.3706 5.50721 43.7054 5.67699ZM43.351 10.7635C40.5623 11.0027 37.5829 12.4293 35.5417 14.5027C29.2385 20.9054 31.016 31.6182 39.0396 35.583C39.6743 35.8967 40.7522 36.3034 41.4348 36.4869C42.5197 36.7787 42.9199 36.8206 44.6137 36.8206C46.3075 36.8206 46.7077 36.7787 47.7927 36.4869C52.8304 35.1326 56.5416 30.9527 57.37 25.7002C57.5774 24.3859 57.4609 21.9122 57.1315 20.6354C55.6793 15.0058 50.9563 11.048 45.3013 10.7218C44.82 10.694 43.9424 10.7128 43.351 10.7635ZM42.821 12.6549C38.3715 13.4764 34.9053 16.7495 33.836 21.1391C33.4579 22.6916 33.4644 24.9963 33.851 26.4874C34.1611 27.6829 34.681 28.9196 35.2566 29.8306L35.6411 30.4393L36.0078 29.6517C36.9609 27.6044 38.5804 25.9617 40.6042 24.9895L41.3516 24.6303L40.974 24.2631C40.7663 24.0611 40.3949 23.4817 40.1485 22.9757C38.213 18.999 41.9986 14.5848 46.1559 15.9711C49.044 16.9341 50.4175 20.2255 49.079 22.9757C48.8326 23.4817 48.4612 24.0611 48.2535 24.2631L47.8758 24.6303L48.6233 24.9895C50.647 25.9617 52.2666 27.6044 53.2197 29.6517L53.5864 30.4393L53.9709 29.8306C55.8397 26.8723 56.2041 22.9511 54.9195 19.6215C53.9723 17.1662 51.9185 14.9072 49.5264 13.6895C48.1314 12.9794 46.7371 12.6413 44.9888 12.5895C44.1293 12.5641 43.1538 12.5935 42.821 12.6549ZM43.9715 17.5667C43.7901 17.5983 43.3405 17.8069 42.9722 18.0306C42.2132 18.4913 41.574 19.4282 41.4406 20.2753C41.1088 22.3832 43.0401 24.3449 45.1152 24.0079C46.8178 23.7313 48.1255 21.8338 47.7581 20.1727C47.3694 18.4157 45.6989 17.266 43.9715 17.5667ZM43.8636 25.9386C41.7358 26.299 40.4236 26.9317 39.1863 28.1945C38.2646 29.135 37.5173 30.3796 37.2409 31.4341C37.1069 31.9453 37.118 32.0124 37.3856 32.3036C38.2717 33.2676 40.593 34.4385 42.3726 34.8187C43.5046 35.0606 45.7229 35.0606 46.8549 34.8187C48.6344 34.4385 50.9558 33.2676 51.8419 32.3036C52.1094 32.0124 52.1206 31.9453 51.9865 31.4341C51.4987 29.5728 49.8856 27.6406 48.1015 26.7804C47.524 26.5019 46.7983 26.2143 46.4889 26.1411C45.814 25.9817 44.2991 25.8648 43.8636 25.9386ZM22.6113 26.3762C20.6013 26.6413 18.7319 28.0162 17.8681 29.8643C16.6868 32.3918 17.1888 35.2207 19.1599 37.1433C21.1437 39.0783 23.8523 39.4756 26.3313 38.1948C27.79 37.4412 28.8939 36.0937 29.3773 34.4768C29.5911 33.762 29.6311 33.3544 29.5922 32.2881C29.5471 31.0493 29.5157 30.9185 29.0176 29.8977C27.7986 27.3987 25.2946 26.0223 22.6113 26.3762ZM24.2167 31.412C23.1303 32.5078 22.223 33.3791 22.2002 33.3485C22.1774 33.3179 21.913 32.8643 21.6126 32.3405C21.0071 31.2851 20.8091 31.0807 20.3867 31.0747C20.0247 31.0696 19.4859 31.6056 19.4859 31.9709C19.4859 32.2644 20.9797 35.0001 21.404 35.4834C21.5615 35.663 21.7981 35.7692 22.0405 35.7692C22.375 35.7692 22.7528 35.437 24.8939 33.26C27.062 31.0557 27.3618 30.702 27.3618 30.3485C27.3618 29.8994 26.8896 29.4198 26.4475 29.4198C26.2848 29.4198 25.4737 30.1441 24.2167 31.412ZM23.9239 41.1767C22.7 41.4756 22.022 41.7182 21.1081 42.1839C19.1263 43.1943 16.749 45.1994 14.4379 47.8102L13.0876 49.3355L12.1819 49.2659C10.6983 49.152 10.5946 49.216 7.95338 51.8763C5.93566 53.9084 5.60938 54.2908 5.60938 54.6229C5.60938 54.9629 6.35534 55.7664 11.8918 61.3894C17.3291 66.9117 18.2236 67.77 18.541 67.77C18.8489 67.77 19.2647 67.4094 21.1379 65.5171C23.7155 62.9135 23.9132 62.6053 23.8407 61.3023L23.7923 60.4332L24.4832 60.209C26.7389 59.4768 29.8896 59.3445 35.2031 59.7586C42.2582 60.3083 45.0251 60.0356 48.7392 58.4239C52.6212 56.7392 61.2329 51.4856 63.8867 49.1831C64.6357 48.5332 64.9327 48.1709 65.2455 47.5255C65.6002 46.7936 65.6398 46.6054 65.5939 45.872C65.5258 44.7859 65.0831 44.1064 64.1151 43.602C63.5062 43.2848 63.3197 43.2489 62.4703 43.285C61.5681 43.3234 61.4261 43.3724 60.0326 44.1257C56.7822 45.883 52.456 47.9523 49.083 49.3636L47.6141 49.978V49.3726C47.6141 48.4896 47.2905 47.6646 46.6686 46.9621C45.8144 45.9969 45.2663 45.8174 42.7459 45.6783C38.9091 45.4662 36.6488 44.9126 32.1238 43.0767C28.2005 41.4848 27.2839 41.2177 25.5491 41.1607C24.7928 41.1359 24.0614 41.143 23.9239 41.1767ZM24.3605 43.0055C23.0627 43.173 21.7307 43.7722 20.111 44.9166C19.138 45.6041 14.4854 50.2468 14.4854 50.5301C14.4854 50.6174 16.3193 52.5522 18.5607 54.8299L22.636 58.9709L23.53 58.6193C26.1374 57.5936 29.2371 57.4163 35.3103 57.9456C38.6964 58.2406 42.735 58.2433 44.1604 57.9512C46.5921 57.453 48.4827 56.6749 51.9655 54.7386C57.1255 51.87 62.4748 48.314 63.3712 47.1565C64.0076 46.3345 63.9451 45.4626 63.228 45.1609C62.7007 44.9391 62.0647 45.086 60.9914 45.6776C56.4534 48.1791 49.5475 51.3048 45.8014 52.5527C43.6349 53.2744 42.7498 53.4208 40.571 53.4179C37.5569 53.4139 34.342 52.8555 32.5235 52.0199C31.9176 51.7414 31.7284 51.5872 31.6618 51.3175C31.4548 50.4798 32.1107 49.9053 32.8982 50.2346C34.9293 51.0841 37.5458 51.5466 40.4258 51.5649C43.506 51.5843 44.7781 51.2492 45.5285 50.2201C45.8371 49.7968 45.8512 48.8515 45.5557 48.3935C45.1415 47.7513 44.7425 47.6245 42.8632 47.5376C38.7608 47.348 36.1135 46.6905 30.9803 44.586C27.4731 43.1482 25.9929 42.7947 24.3605 43.0055ZM9.52318 52.8141L7.72949 54.6206L13.139 60.1177L18.5483 65.615L20.3298 63.7949C21.9247 62.1653 22.1112 61.9293 22.1112 61.5408C22.1112 61.1386 21.7457 60.7354 17.1402 56.0572C12.54 51.3844 12.1374 51.0077 11.7431 51.0077C11.3623 51.0077 11.1261 51.1998 9.52318 52.8141Z" fill="#2B8174"/>
</svg>
