<svg width="71" height="70" viewBox="0 0 71 70" fill="none" xmlns="http://www.w3.org/2000/svg">
<path fill-rule="evenodd" clip-rule="evenodd" d="M13.3419 2.28588C12.9992 2.56241 8.28829 8.1842 7.87194 8.81336C7.41741 9.50028 7.72665 10.5392 8.48186 10.863C8.72075 10.9653 9.23145 11.0491 9.61679 11.0491H10.3172L10.355 17.304L10.3927 23.5589L10.69 23.9866C11.2166 24.7441 11.4641 24.8033 14.1016 24.8033C16.7706 24.8033 17.1487 24.7118 17.6044 23.9553C17.853 23.5425 17.8618 23.3155 17.8618 17.3028V11.0778L18.8194 11.0282C19.6839 10.9834 19.8146 10.9399 20.164 10.5816C20.7095 10.0218 20.7804 9.4137 20.3716 8.79777C19.8397 7.99662 15.0557 2.28339 14.7983 2.14205C14.3991 1.92277 13.7071 1.99115 13.3419 2.28588ZM35.1271 2.20296C34.8271 2.29911 33.9699 2.83291 33.2223 3.3891C32.4748 3.94529 31.6861 4.47476 31.4698 4.56554C31.2534 4.65632 30.2947 4.78836 29.3393 4.85883C27.936 4.96245 27.4685 5.04969 26.9075 5.31325C25.4101 6.01654 24.8478 6.86956 24.2518 9.34217C24.0362 10.2369 23.7665 11.1195 23.6525 11.3037C23.5386 11.4878 22.8566 12.2281 22.1371 12.9485C20.517 14.5706 20.2283 15.195 20.3201 16.8783C20.373 17.8476 20.4371 18.0491 21.175 19.5636L21.9729 21.201L21.8663 22.642C21.6681 25.3184 21.7122 26.0872 22.1109 26.9203C22.5513 27.8402 23.2323 28.4832 24.3452 29.0297C24.8172 29.2614 25.2222 29.4611 25.2454 29.4736C25.2685 29.486 24.3635 31.5355 23.2345 34.0279C21.0188 38.9188 20.9206 39.245 21.5179 39.7269C21.9525 40.0777 22.0676 40.073 24.6498 39.5979C25.8472 39.3775 26.8416 39.2154 26.8596 39.2376C26.8776 39.2598 27.3917 40.1622 28.0018 41.2429C29.173 43.3171 29.5589 43.7972 30.055 43.7972C30.67 43.7972 30.9858 43.2587 33.0509 38.689L35.0928 34.1705L35.735 34.0036C36.2737 33.8635 36.5108 33.8684 37.2053 34.0337C38.899 34.4366 38.6887 34.165 40.312 38.046C41.2119 40.1973 41.8781 41.6163 42.0745 41.7996C42.4521 42.1521 43.0183 42.1809 43.3663 41.8651C43.5052 41.7391 44.1511 40.7516 44.8017 39.6709C45.4522 38.5903 46.0002 37.6871 46.0194 37.6639C46.0387 37.6406 47.0379 37.8322 48.24 38.0896C49.4421 38.3469 50.5866 38.5575 50.7833 38.5575C51.2389 38.5575 51.7394 38.0257 51.7376 37.5434C51.7368 37.3447 51.0028 35.4432 50.1063 33.3178C49.2097 31.1925 48.45 29.386 48.4179 29.3034C48.3858 29.2208 48.6259 29.0168 48.9513 28.8501C49.6802 28.4766 50.4808 27.6047 50.842 26.7913C51.148 26.1016 51.1932 24.9685 51.01 22.5765L50.9046 21.201L51.7126 19.5636L52.5205 17.9262L52.5235 16.6163C52.526 15.4038 52.4978 15.2537 52.1443 14.5988C51.9121 14.1686 51.3225 13.4752 50.6407 12.8304C50.0238 12.2469 49.4101 11.5928 49.2768 11.3766C49.1436 11.1605 48.8534 10.2468 48.6321 9.34624C48.0205 6.85777 47.4653 6.01549 45.9754 5.3156C45.4282 5.0586 44.9531 4.96782 43.6713 4.87521C42.7833 4.81102 41.8556 4.70217 41.6098 4.63339C41.3641 4.56449 40.5497 4.0417 39.8003 3.47162C39.0508 2.90155 38.1643 2.33959 37.8305 2.22288C37.1065 1.9698 35.8831 1.96089 35.1271 2.20296ZM57.7678 2.43639C56.9365 3.24737 52.5613 8.62774 52.3773 9.06513C52.1376 9.6352 52.2516 10.1325 52.73 10.6027C53.0683 10.9352 53.2243 10.9849 54.0645 11.0284L55.016 11.0778V17.3028C55.016 23.3155 55.0248 23.5425 55.2734 23.9553C55.7301 24.7133 56.1048 24.8033 58.8018 24.8028C60.9619 24.8024 61.2501 24.7762 61.6164 24.5471C62.5156 23.9846 62.481 24.2605 62.5218 17.3099L62.5584 11.0491H63.26C63.6458 11.0491 64.1571 10.9653 64.3959 10.863C65.1462 10.5414 65.4635 9.49085 65.0133 8.81873C64.5941 8.19285 59.8545 2.54289 59.5266 2.27828C59.003 1.8557 58.2981 1.9191 57.7678 2.43639ZM35.8287 4.23282C35.6335 4.29609 34.9728 4.72981 34.3604 5.19653C32.3205 6.75115 32.1652 6.8118 29.7603 6.9927C27.9337 7.13011 27.5393 7.26045 27.0148 7.89995C26.6436 8.3524 26.6514 8.33039 26.2813 10.0012C25.8437 11.9764 25.4593 12.6708 24.04 14.0489C22.7574 15.2942 22.3305 15.9374 22.3305 16.6246C22.3305 16.8577 22.6333 17.669 23.0293 18.4968C24.1059 20.7474 24.1873 21.1357 23.9942 23.0953C23.7794 25.2737 23.7959 25.644 24.1319 26.2018C24.3549 26.572 24.6561 26.7879 25.5124 27.1914C28.427 28.565 28.4742 28.603 29.8376 30.6667C31.3037 32.8859 31.5741 32.9812 34.2045 32.2044C35.1117 31.9365 36.0405 31.7459 36.4389 31.7459C36.8373 31.7459 37.7661 31.9365 38.6733 32.2044C41.2947 32.9786 41.5686 32.8798 43.0744 30.6185C44.2907 28.7918 44.7733 28.375 46.6133 27.5618C48.2398 26.843 48.4354 26.7173 48.7561 26.1849C49.0855 25.6381 49.104 25.2368 48.8956 23.164C48.6903 21.1218 48.7629 20.7661 49.8485 18.4968C50.2445 17.669 50.5473 16.8577 50.5473 16.6246C50.5473 15.938 50.1207 15.2945 48.8429 14.0538C47.4067 12.6593 47.123 12.1429 46.6057 9.98246C45.9859 7.39301 45.7506 7.19128 43.1161 6.99178C42.1823 6.92104 41.2042 6.80053 40.9425 6.7239C40.499 6.59422 39.604 6.01576 37.9072 4.7619C37.1596 4.20964 36.4538 4.02991 35.8287 4.23282ZM12.3197 6.72639L10.5772 8.82227H11.165C11.6446 8.82227 11.8218 8.89287 12.1262 9.20516L12.4994 9.58805V16.1477V22.7074H14.1592H15.819V16.1171C15.819 9.67765 15.8248 9.52006 16.0779 9.24157C16.3387 8.95418 16.594 8.85855 17.2758 8.79266C17.639 8.75756 17.6088 8.70987 15.9464 6.69364C15.0109 5.55886 14.2042 4.63051 14.1538 4.63051C14.1035 4.63051 13.2781 5.57366 12.3197 6.72639ZM56.9434 6.69364C55.279 8.70359 55.2445 8.75769 55.6043 8.79266C56.2843 8.85881 56.5393 8.95457 56.7999 9.24157C57.053 9.52006 57.0588 9.67765 57.0588 16.1171V22.7074H58.7186H60.3784V16.1652V9.62289L60.6823 9.26044C60.9146 8.98339 61.136 8.88134 61.6224 8.82737L62.2588 8.75677L60.5444 6.69364C59.6017 5.55886 58.7901 4.63051 58.741 4.63051C58.6919 4.63051 57.8831 5.55886 56.9434 6.69364ZM34.4599 8.36969C31.0573 9.11399 28.2419 11.6199 27.0529 14.9624C26.1211 17.5819 26.2758 20.3417 27.4979 22.9039C29.2088 26.4908 32.5398 28.6206 36.4389 28.6206C43.3708 28.6206 48.1494 21.6796 45.8357 14.9717C45.3647 13.606 44.7886 12.6535 43.7165 11.4678C41.341 8.8406 37.7705 7.64556 34.4599 8.36969ZM35.5784 10.4154C32.3055 10.7497 29.5342 13.2739 28.7706 16.6163C28.4727 17.9199 28.5736 19.8538 29.001 21.0362C29.4446 22.2629 30.0578 23.2583 30.9005 24.1188C34.71 28.0091 41.0191 26.9559 43.4716 22.0203C44.6154 19.7186 44.5534 16.7616 43.3136 14.4682C43.0486 13.978 42.454 13.2063 41.9408 12.6865C40.2008 10.9246 38.0633 10.1615 35.5784 10.4154ZM37.4942 17.1253L34.7617 19.6649L33.8059 18.7063C33.2802 18.179 32.6848 17.7051 32.4828 17.653C31.7197 17.4565 30.9714 18.3051 31.2654 19.0334C31.4716 19.5441 34.0725 22.1444 34.4829 22.2502C34.6679 22.2978 34.9406 22.2701 35.0891 22.1886C35.4886 21.9692 41.3925 16.4337 41.5735 16.1088C41.8081 15.6874 41.7701 15.4317 41.407 14.989C41.1598 14.6876 40.9693 14.5859 40.6515 14.5859C40.2787 14.5859 39.8918 14.897 37.4942 17.1253ZM45.932 30.3384C45.746 30.5002 45.1907 31.2567 44.698 32.0196C43.5728 33.7619 42.9734 34.2984 41.723 34.6825L41.2617 34.8242L42.0422 36.6896C42.4715 37.7155 42.8703 38.5393 42.9282 38.5202C42.9863 38.5011 43.4221 37.8385 43.8967 37.0478C44.4078 36.1964 44.891 35.5442 45.0818 35.4483C45.3512 35.3127 45.6785 35.3427 47.0841 35.6315C48.0081 35.8213 48.7908 35.9496 48.8232 35.9163C48.8972 35.8405 46.4529 30.0428 46.3474 30.0437C46.3049 30.0441 46.1179 30.1766 45.932 30.3384ZM25.5672 34.0071C24.7139 35.8975 24.0292 37.4588 24.0455 37.4768C24.062 37.4948 24.7027 37.3925 25.4692 37.2496C27.0367 36.9572 27.6022 36.9265 27.946 37.1153C28.0759 37.1867 28.5683 37.9272 29.0404 38.7611C29.5123 39.5948 29.9439 40.2291 29.9996 40.1704C30.0554 40.1119 30.621 38.9145 31.2567 37.5096L32.4125 34.9552L31.6528 34.7963C30.0876 34.4687 29.4397 33.9471 28.1822 32.0013C27.6724 31.2125 27.2244 30.5678 27.1869 30.5686C27.1492 30.5695 26.4203 32.1169 25.5672 34.0071ZM21.9475 44.5112C20.8237 44.8073 19.9276 45.2684 16.3207 47.4072C14.4515 48.5155 12.8414 49.4511 12.7427 49.4862C12.6282 49.5268 12.3968 49.2762 12.1037 48.7938C11.5544 47.8899 10.9561 47.5313 10.0096 47.5386C9.46166 47.5428 9.15434 47.6691 7.83913 48.4308C6.12813 49.4219 5.55038 49.9186 5.3369 50.5821C5.01553 51.581 5.12112 51.8217 8.86872 58.6313C13.2114 66.5225 13.1251 66.3801 13.7662 66.7156C14.7018 67.2053 15.2961 67.0971 17.0319 66.1205C19.0238 65 19.4379 64.6043 19.6558 63.6132C19.7825 63.0371 19.6024 62.2883 19.1469 61.4957L18.7702 60.8402L19.3693 60.4948L19.9685 60.1492L24.118 61.2917C32.5811 63.6218 31.936 63.475 33.4385 63.4133C34.4828 63.3705 34.9499 63.2868 35.5519 63.0349C36.7875 62.5177 52.9553 52.2606 53.5081 51.6431C54.0929 50.9899 54.4076 50.0496 54.4015 48.9735C54.3886 46.6679 52.6024 45.0839 50.2345 45.2781C48.525 45.4182 47.8531 45.743 41.8619 49.3246C37.3902 51.9977 36.7612 52.3585 36.6929 52.2884C36.67 52.2649 36.7135 51.9672 36.7895 51.6265C37.0701 50.3679 36.4873 48.9981 35.2635 48.0404C34.8558 47.7215 34.3908 47.5442 33.2452 47.2709C31.6916 46.9002 29.704 46.263 26.5001 45.1086C24.3535 44.3351 23.1936 44.183 21.9475 44.5112ZM21.9475 46.788C21.5613 46.9195 21.0442 47.1344 20.7984 47.2656C20.4349 47.4595 13.8068 51.3684 13.6734 51.4675C13.652 51.4834 14.561 53.1768 15.6933 55.2305L17.7521 58.9645L18.603 58.4545C19.0709 58.1739 19.605 57.9444 19.7899 57.9444C19.9746 57.9444 22.7973 58.6798 26.0623 59.5785C29.3274 60.4772 32.3166 61.251 32.7051 61.2978C33.4774 61.3909 34.4978 61.1981 35.226 60.8215C35.4717 60.6943 39.3212 58.2839 43.7804 55.4651C52.31 50.073 52.3348 50.0547 52.3348 49.1329C52.3348 48.5858 52.0161 47.9072 51.6403 47.6547C51.1701 47.3386 49.7149 47.4525 48.6882 47.8859C48.2626 48.0655 45.7157 49.5267 43.0283 51.1329C40.341 52.7393 37.7878 54.2036 37.3545 54.3871C36.2496 54.855 34.3694 54.9257 32.6552 54.5635C30.2196 54.0491 26.4968 52.9278 26.1928 52.6172C25.6084 52.02 26.055 50.8708 26.8715 50.8708C27.058 50.8708 28.3569 51.1934 29.7578 51.5878C32.7343 52.4257 33.4081 52.5416 33.9534 52.3099C34.7527 51.9702 34.9735 50.7737 34.3641 50.0854C34.0586 49.7402 33.7561 49.6224 32.034 49.1788C30.9456 48.8984 28.791 48.2113 27.2461 47.6518C24.0472 46.4934 23.2125 46.3573 21.9475 46.788ZM8.66903 50.4186C8.00191 50.8107 7.43771 51.2194 7.41511 51.3269C7.37693 51.5095 14.3846 64.3685 14.7141 64.7201C14.8319 64.846 15.1524 64.7168 16.1952 64.1234C16.9272 63.7069 17.5457 63.3058 17.5696 63.2321C17.639 63.0184 10.271 49.761 10.0667 49.7321C9.96509 49.7177 9.33614 50.0267 8.66903 50.4186ZM9.02742 51.493C8.92183 51.619 8.79849 51.8291 8.75317 51.9597C8.64337 52.2767 8.98312 52.9266 9.3152 53.0347C10.2557 53.3409 10.9514 52.1831 10.2557 51.4694C9.98577 51.1925 9.26745 51.2063 9.02742 51.493Z" fill="#2B8174"/>
</svg>
