<svg width="51" height="51" viewBox="0 0 51 51" fill="none" xmlns="http://www.w3.org/2000/svg">
<path fill-rule="evenodd" clip-rule="evenodd" d="M12.6859 20.251V11.454H21.483V0.414062L38.6518 7.81911V14.528L45.9601 18.4723V48.247H47.3302V49.9484H44.2588V19.4776L38.6518 16.4615V49.9484H31.8655V10.8933L36.9505 13.6193V8.94049L23.2038 3.00486V11.454H28.2694V49.9484H21.483V13.1553H14.3874V20.251H19.4529V49.9484H12.6859V21.9524H7.65905V49.9484H2.97461V48.247H5.95764V20.251H12.6859ZM26.5679 48.247V13.1553H23.2038V48.247H26.5679ZM17.7515 48.247V21.9524H14.3874V48.247H17.7515ZM36.9505 15.5528L33.5669 13.7353V48.247H36.9505V15.5528Z" fill="#FFB703"/>
</svg>
