<svg width="38" height="38" viewBox="0 0 38 38" fill="none" xmlns="http://www.w3.org/2000/svg">
<path d="M27.7053 22.7715C27.2328 22.5356 24.9085 21.3988 24.4758 21.2404C24.0415 21.0837 23.7265 21.0061 23.4099 21.4779C23.0965 21.9482 22.1897 23.0074 21.9145 23.3209C21.6392 23.636 21.3624 23.674 20.8899 23.4397C20.4174 23.2022 18.8934 22.7066 17.0877 21.1043C15.683 19.8566 14.7332 18.316 14.458 17.8442C14.1828 17.374 14.4293 17.119 14.6648 16.8847C14.878 16.6741 15.1389 16.3353 15.3743 16.0614C15.6114 15.7859 15.6893 15.5895 15.8484 15.2745C16.0059 14.961 15.928 14.687 15.8086 14.4511C15.6893 14.2152 14.7443 11.8988 14.3514 10.9567C13.9664 10.04 13.5766 10.165 13.2871 10.1492C13.0119 10.1365 12.6969 10.1334 12.3803 10.1334C12.0653 10.1334 11.553 10.2505 11.1203 10.7224C10.6876 11.1926 9.46577 12.331 9.46577 14.6475C9.46577 16.9623 11.1601 19.1995 11.3955 19.5146C11.6326 19.8281 14.73 24.5813 19.4724 26.619C20.6004 27.1035 21.4801 27.3933 22.1674 27.6086C23.3001 27.968 24.331 27.9174 25.144 27.7954C26.0524 27.6609 27.9407 26.657 28.3353 25.5582C28.7298 24.4594 28.7298 23.5173 28.6105 23.3209C28.4928 23.1246 28.1794 23.0074 27.7053 22.7715ZM19.0795 34.4929H19.0731C16.2569 34.4932 13.4924 33.7396 11.0694 32.3111L10.4951 31.9723L4.54357 33.5271L6.13128 27.7511L5.75742 27.1589C4.18314 24.664 3.35031 21.7767 3.35518 18.8306C3.35677 10.2015 10.4123 3.18098 19.0859 3.18098C23.2858 3.18098 27.2344 4.81181 30.203 7.76947C31.6677 9.22078 32.8286 10.9468 33.6186 12.8476C34.4086 14.7484 34.812 16.7863 34.8054 18.8433C34.8006 27.4724 27.7466 34.4929 19.0795 34.4929ZM32.4636 5.52272C30.7108 3.76669 28.6252 2.37433 26.3277 1.42633C24.0302 0.478332 21.5666 -0.00645405 19.0795 6.4881e-05C8.65124 6.4881e-05 0.163861 8.44713 0.159089 18.829C0.159089 22.1477 1.0293 25.3872 2.68542 28.2419L0 38L10.0305 35.3812C12.8044 36.8852 15.9127 37.6734 19.0715 37.6738H19.0795C29.5062 37.6738 37.9951 29.2268 37.9999 18.8433C38.0076 16.369 37.5223 13.9177 36.572 11.6313C35.6217 9.34483 34.2253 7.26861 32.4636 5.52272Z" fill="#F4F9F0"/>
</svg>
