<svg width="40" height="41" viewBox="0 0 40 41" fill="none" xmlns="http://www.w3.org/2000/svg">
<rect y="0.330078" width="40" height="40" rx="20" fill="white" fill-opacity="0.25"/>
<path d="M20 13C20.9405 13 21.9052 13.0234 22.8402 13.0616L23.9446 13.1126L25.0017 13.1732L25.9917 13.238L26.8959 13.306C27.8773 13.3781 28.8009 13.7825 29.504 14.4478C30.207 15.1131 30.6445 15.9967 30.7393 16.9429L30.7833 17.3945L30.8658 18.3614C30.9428 19.3633 31 20.4556 31 21.5C31 22.5444 30.9428 23.6367 30.8658 24.6386L30.7833 25.6055L30.7393 26.0571C30.6445 27.0035 30.2068 27.8872 29.5035 28.5526C28.8002 29.2179 27.8764 29.6221 26.8948 29.694L25.9928 29.7609L25.0028 29.8268L23.9446 29.8874L22.8402 29.9384C21.894 29.978 20.9471 29.9985 20 30C19.0529 29.9985 18.106 29.978 17.1598 29.9384L16.0554 29.8874L14.9983 29.8268L14.0083 29.7609L13.1041 29.694C12.1227 29.6219 11.1991 29.2175 10.496 28.5522C9.79298 27.8869 9.35551 27.0033 9.2607 26.0571L9.2167 25.6055L9.1342 24.6386C9.05042 23.5943 9.00565 22.5474 9 21.5C9 20.4556 9.0572 19.3633 9.1342 18.3614L9.2167 17.3945L9.2607 16.9429C9.35547 15.9968 9.79278 15.1134 10.4956 14.4481C11.1985 13.7828 12.1218 13.3784 13.103 13.306L14.0061 13.238L14.9961 13.1732L16.0543 13.1126L17.1587 13.0616C18.1053 13.022 19.0526 13.0015 20 13ZM20 15.125C19.0925 15.125 18.1586 15.1484 17.25 15.1845L16.1742 15.2344L15.1413 15.2929L14.1711 15.3566L13.2823 15.4236C12.815 15.4552 12.3745 15.6458 12.0389 15.9615C11.7034 16.2772 11.4946 16.6976 11.4497 17.148C11.321 18.4326 11.2 20.0316 11.2 21.5C11.2 22.9684 11.321 24.5674 11.4497 25.852C11.5432 26.7785 12.3044 27.4989 13.2823 27.5764L14.1711 27.6423L15.1413 27.7061L16.1742 27.7656L17.25 27.8155C18.1586 27.8516 19.0925 27.875 20 27.875C20.9075 27.875 21.8414 27.8516 22.75 27.8155L23.8258 27.7656L24.8587 27.7071L25.8289 27.6434L26.7177 27.5764C27.185 27.5448 27.6255 27.3542 27.9611 27.0385C28.2966 26.7228 28.5054 26.3024 28.5503 25.852C28.679 24.5674 28.8 22.9684 28.8 21.5C28.8 20.0316 28.679 18.4326 28.5503 17.148C28.5054 16.6976 28.2966 16.2772 27.9611 15.9615C27.6255 15.6458 27.185 15.4552 26.7177 15.4236L25.8289 15.3577L24.8587 15.2939L23.8258 15.2344L22.75 15.1845C21.8339 15.1465 20.917 15.1267 20 15.125ZM17.8 18.9234C17.7999 18.8196 17.8261 18.7173 17.8763 18.6255C17.9265 18.5336 17.9991 18.455 18.0879 18.3965C18.1767 18.3379 18.279 18.3012 18.3858 18.2896C18.4926 18.2779 18.6008 18.2916 18.7009 18.3295L18.79 18.372L23.41 20.9475C23.502 20.9988 23.5798 21.0707 23.6369 21.1573C23.6939 21.2438 23.7285 21.3424 23.7377 21.4446C23.7469 21.5468 23.7304 21.6496 23.6896 21.7444C23.6488 21.8391 23.585 21.9229 23.5035 21.9888L23.41 22.0525L18.79 24.6291C18.6969 24.6811 18.592 24.7104 18.4845 24.7144C18.377 24.7184 18.2701 24.6969 18.1732 24.6519C18.0762 24.6068 17.9921 24.5396 17.9283 24.456C17.8644 24.3724 17.8226 24.2749 17.8066 24.1722L17.8 24.0766V18.9234Z" fill="white"/>
</svg>
